<?xml version="1.0" encoding="UTF-8" standalone="no"?>
<!DOCTYPE svg PUBLIC "-//W3C//DTD SVG 1.1//EN" "http://www.w3.org/Graphics/SVG/1.1/DTD/svg11.dtd">
<svg xmlns="http://www.w3.org/2000/svg" version="1.1" viewBox="0.00 0.00 512.00 512.00">
<path fill="#000000" d="
  M 265.79 95.49
  Q 273.65 95.57 281.50 95.51
  C 287.85 95.46 290.00 100.07 291.23 105.90
  Q 295.05 123.87 298.92 141.83
  Q 299.03 142.34 299.55 142.46
  Q 350.34 154.36 387.04 187.94
  Q 448.45 244.12 451.73 328.95
  C 452.10 338.60 449.21 342.34 439.64 342.33
  Q 385.35 342.27 331.09 342.33
  Q 330.55 342.33 330.48 342.86
  C 322.67 398.60 259.39 427.22 213.05 394.75
  C 195.59 382.51 184.45 364.08 181.49 342.81
  Q 181.42 342.32 180.93 342.31
  Q 125.26 342.30 69.50 342.32
  Q 63.67 342.32 61.46 337.75
  Q 60.26 335.24 60.37 329.55
  C 62.10 239.33 125.00 162.90 212.47 142.45
  Q 212.99 142.33 213.10 141.81
  Q 217.04 123.30 220.99 104.95
  C 222.16 99.48 224.70 95.48 230.49 95.52
  Q 238.40 95.57 246.28 95.50
  A 0.55 0.55 0.0 0 0 246.82 94.95
  Q 246.87 72.97 246.84 51.03
  Q 246.83 46.76 247.83 44.63
  C 250.29 39.42 256.64 38.00 261.27 41.21
  Q 265.27 43.97 265.20 50.00
  Q 264.98 68.44 265.24 94.94
  Q 265.25 95.49 265.79 95.49
  Z
  M 279.46 138.29
  L 274.35 114.39
  Q 274.23 113.86 273.69 113.86
  L 238.28 113.86
  Q 237.76 113.86 237.65 114.36
  L 232.55 138.29
  Q 232.41 138.95 233.08 138.88
  Q 256.00 136.24 278.92 138.88
  Q 279.60 138.96 279.46 138.29
  Z
  M 314.32 165.60
  C 203.01 127.27 85.68 205.46 78.88 323.64
  A 0.39 0.39 0.0 0 0 79.27 324.05
  L 432.73 324.05
  Q 433.08 324.05 433.06 323.69
  Q 429.60 265.71 394.29 222.22
  Q 361.51 181.85 314.32 165.60
  Z
  M 231.49 384.24
  C 265.44 400.99 305.37 379.78 312.03 342.73
  A 0.36 0.35 5.4 0 0 311.68 342.31
  L 200.50 342.31
  Q 199.89 342.31 200.01 342.91
  Q 205.67 371.49 231.49 384.24
  Z"
/>
<rect fill="#000000" x="-23.92" y="-9.13" transform="translate(147.51,390.03) rotate(-34.1)" width="47.84" height="18.26" rx="8.87"/>
<rect fill="#000000" x="-23.93" y="-9.13" transform="translate(364.49,390.02) rotate(34.0)" width="47.86" height="18.26" rx="8.87"/>
<rect fill="#000000" x="-9.12" y="-23.93" transform="translate(191.18,426.38) rotate(36.2)" width="18.24" height="47.86" rx="8.86"/>
<rect fill="#000000" x="-9.12" y="-23.93" transform="translate(320.82,426.37) rotate(-36.2)" width="18.24" height="47.86" rx="8.86"/>
<rect fill="#000000" x="246.89" y="424.61" width="18.22" height="47.82" rx="8.76"/>
</svg>
