<?xml version="1.0" encoding="UTF-8" standalone="no"?>
<!DOCTYPE svg PUBLIC "-//W3C//DTD SVG 1.1//EN" "http://www.w3.org/Graphics/SVG/1.1/DTD/svg11.dtd">
<svg xmlns="http://www.w3.org/2000/svg" version="1.1" viewBox="0.00 0.00 512.00 512.00">
<path fill="#000000" d="
  M 512.00 338.31
  L 512.00 349.06
  C 507.95 448.36 418.55 519.55 320.74 500.92
  Q 286.14 494.34 256.44 472.02
  Q 256.02 471.71 255.60 472.02
  C 151.39 549.16 4.91 478.28 0.00 349.16
  L 0.00 337.93
  C 3.04 275.12 40.58 221.43 98.25 196.72
  Q 98.73 196.51 98.64 196.00
  Q 89.95 143.72 112.62 97.38
  C 140.56 40.28 200.27 5.29 263.54 8.21
  C 359.88 12.66 429.71 100.84 413.25 195.92
  Q 413.16 196.47 413.66 196.68
  C 471.52 221.56 509.13 275.25 512.00 338.31
  Z
  M 286.76 26.28
  C 186.81 4.74 97.60 90.11 113.08 190.72
  Q 113.16 191.22 113.65 191.08
  Q 172.50 174.34 227.55 199.38
  Q 231.65 201.24 233.05 203.13
  C 236.12 207.28 233.06 214.37 227.78 214.78
  Q 225.51 214.96 221.48 213.10
  Q 173.54 191.08 121.74 204.41
  Q 119.34 205.02 116.77 205.99
  Q 116.20 206.20 116.38 206.78
  Q 136.31 271.81 197.81 300.51
  A 0.56 0.56 0.0 0 0 198.58 300.16
  C 224.07 214.63 311.96 165.53 398.30 191.17
  Q 398.82 191.33 398.91 190.79
  C 411.29 114.87 361.14 42.31 286.76 26.28
  Z
  M 386.53 203.41
  C 345.45 193.82 302.72 201.60 268.26 226.27
  A 0.34 0.33 -41.0 0 0 268.22 226.79
  Q 300.68 257.03 313.31 299.67
  Q 313.64 300.79 314.69 300.29
  Q 375.81 271.49 395.61 206.75
  Q 395.78 206.20 395.24 206.01
  Q 390.80 204.41 386.53 203.41
  Z
  M 16.82 366.91
  C 31.47 457.63 125.91 512.25 211.45 479.43
  C 275.20 454.97 313.58 389.20 302.73 321.17
  Q 302.65 320.70 302.20 320.83
  Q 256.07 334.39 209.93 320.86
  Q 209.38 320.70 209.27 321.26
  Q 208.85 323.22 208.61 325.23
  Q 201.59 385.60 238.01 433.26
  C 242.56 439.21 237.49 447.73 230.59 445.59
  Q 228.14 444.83 225.53 441.55
  C 197.44 406.11 187.60 360.44 194.81 315.90
  A 0.41 0.41 0.0 0 0 194.57 315.46
  Q 125.10 284.58 102.22 211.91
  Q 102.08 211.46 101.66 211.65
  C 41.65 238.35 6.27 301.54 16.82 366.91
  Z
  M 268.43 462.22
  C 296.65 482.91 332.39 491.64 367.00 488.22
  C 426.84 482.32 477.40 438.48 492.46 380.25
  C 499.09 354.60 498.61 325.85 490.16 300.37
  Q 469.96 239.43 410.60 211.56
  Q 409.98 211.26 409.77 211.92
  Q 386.96 284.36 317.79 315.31
  Q 317.35 315.51 317.42 315.98
  Q 329.58 402.09 268.38 461.49
  Q 267.98 461.88 268.43 462.22
  Z
  M 255.87 236.18
  C 235.41 254.50 219.80 278.79 212.70 305.44
  Q 212.56 305.99 213.10 306.15
  Q 256.05 319.10 298.97 306.13
  A 0.56 0.56 0.0 0 0 299.35 305.43
  Q 287.72 264.59 256.29 236.19
  A 0.32 0.31 45.7 0 0 255.87 236.18
  Z"
/>
<path fill="#000000" d="
  M 243.79 122.97
  Q 243.70 140.54 243.76 158.22
  Q 243.77 162.62 242.71 164.60
  C 240.25 169.17 232.55 169.26 229.96 164.81
  Q 228.77 162.77 228.77 158.29
  Q 228.75 112.39 228.76 66.50
  C 228.76 59.31 234.04 58.46 240.22 58.46
  Q 248.80 58.46 257.38 58.51
  Q 267.04 58.57 271.79 60.06
  C 296.75 67.88 303.69 99.90 281.82 116.01
  Q 274.45 121.43 264.74 122.55
  Q 264.10 122.62 264.52 123.11
  Q 282.83 144.30 291.92 154.30
  C 300.04 163.25 288.89 173.18 282.02 165.49
  Q 263.07 144.29 244.15 122.83
  A 0.21 0.21 0.0 0 0 243.79 122.97
  Z
  M 243.90 73.75
  L 243.84 107.41
  A 0.31 0.31 0.0 0 0 244.15 107.72
  L 260.80 107.75
  A 19.10 16.97 0.1 0 0 279.93 90.81
  L 279.93 90.47
  A 19.10 16.97 0.1 0 0 260.86 73.47
  L 244.21 73.44
  A 0.31 0.31 0.0 0 0 243.90 73.75
  Z"
/>
<path fill="#000000" d="
  M 148.59 378.47
  Q 140.15 378.31 131.71 378.41
  Q 127.40 378.46 125.43 377.52
  C 118.30 374.13 121.02 363.43 128.99 363.42
  Q 142.19 363.40 155.37 363.44
  C 161.17 363.46 164.46 365.57 164.53 371.52
  C 164.71 387.29 159.13 403.43 147.48 414.07
  C 130.10 429.96 102.36 428.84 83.92 415.16
  C 46.75 387.57 57.80 329.33 102.76 317.79
  Q 122.46 312.74 141.71 322.30
  C 144.88 323.87 148.70 325.99 149.90 329.34
  C 151.55 333.99 147.46 339.41 142.54 339.12
  Q 140.58 339.01 136.94 336.80
  C 118.38 325.51 94.83 331.42 82.97 348.99
  C 71.33 366.23 75.69 390.09 92.11 402.50
  C 115.43 420.13 145.88 408.76 149.03 378.97
  Q 149.08 378.48 148.59 378.47
  Z"
/>
<path fill="#000000" d="
  M 422.96 365.51
  Q 437.07 375.46 438.02 391.47
  C 438.95 407.09 429.07 420.99 413.95 425.06
  Q 408.62 426.49 394.97 426.45
  Q 385.11 426.43 375.26 426.49
  C 369.36 426.53 365.49 424.65 365.46 418.37
  Q 365.26 372.19 365.45 326.01
  C 365.47 319.73 367.98 316.82 374.17 316.80
  Q 387.59 316.76 401.00 316.79
  C 425.55 316.85 438.24 346.13 422.86 364.72
  Q 422.49 365.17 422.96 365.51
  Z
  M 380.47 332.31
  L 380.37 359.79
  A 0.61 0.61 0.0 0 0 380.98 360.40
  L 399.93 360.47
  A 14.68 14.25 0.2 0 0 414.66 346.27
  L 414.66 346.07
  A 14.68 14.25 0.2 0 0 400.03 331.77
  L 381.08 331.70
  A 0.61 0.61 0.0 0 0 380.47 332.31
  Z
  M 380.39 375.82
  L 380.45 411.10
  A 0.40 0.40 0.0 0 0 380.85 411.50
  L 404.92 411.45
  A 18.31 17.98 -0.1 0 0 423.20 393.44
  L 423.20 393.32
  A 18.31 17.98 -0.1 0 0 404.86 375.37
  L 380.79 375.42
  A 0.40 0.40 0.0 0 0 380.39 375.82
  Z"
/>
</svg>
