<?xml version="1.0" encoding="UTF-8" standalone="no"?>
<!DOCTYPE svg PUBLIC "-//W3C//DTD SVG 1.1//EN" "http://www.w3.org/Graphics/SVG/1.1/DTD/svg11.dtd">
<svg xmlns="http://www.w3.org/2000/svg" version="1.1" viewBox="0.00 0.00 512.00 512.00">
<path fill="#000000" d="
  M 348.82 0.00
  L 463.34 0.00
  C 490.18 2.13 510.29 21.98 512.00 48.87
  L 512.00 368.83
  Q 510.10 379.15 501.19 382.76
  C 497.02 384.45 491.70 384.07 486.97 383.98
  Q 486.43 383.97 486.43 384.51
  Q 486.37 395.95 486.42 407.38
  Q 486.47 421.44 485.08 425.99
  C 477.96 449.21 444.64 449.48 436.68 426.73
  Q 435.28 422.73 435.25 414.97
  Q 435.20 399.76 435.23 384.51
  Q 435.23 384.00 434.72 384.00
  L 418.55 384.00
  Q 418.10 384.00 418.11 384.45
  Q 418.21 399.72 418.10 415.00
  C 418.03 424.04 416.29 431.51 409.82 437.08
  C 395.88 449.10 374.57 444.06 368.42 426.62
  Q 366.99 422.58 366.97 414.20
  Q 366.94 399.40 366.96 384.54
  Q 366.96 383.99 366.41 383.99
  C 361.63 384.04 356.38 384.45 352.17 382.76
  Q 344.92 379.85 342.48 372.89
  Q 341.28 369.48 341.29 359.97
  Q 341.33 324.91 341.31 289.70
  A 0.16 0.16 0.0 0 0 341.02 289.60
  Q 255.15 398.90 169.23 508.24
  Q 166.99 511.09 163.16 512.00
  L 48.65 512.00
  C 21.81 509.66 1.75 490.20 0.00 463.21
  L 0.00 143.00
  Q 2.34 131.43 12.88 128.57
  C 16.38 127.61 21.02 128.06 25.05 127.98
  A 0.55 0.55 0.0 0 0 25.59 127.43
  Q 25.59 113.99 25.59 100.57
  Q 25.59 90.15 26.72 86.33
  C 33.81 62.33 67.69 62.54 75.49 86.04
  Q 76.76 89.88 76.77 96.26
  Q 76.78 111.89 76.78 127.50
  Q 76.78 128.00 77.28 128.00
  L 93.24 128.00
  Q 93.88 128.00 93.88 127.36
  Q 93.82 112.75 93.89 98.21
  Q 93.93 89.16 95.43 85.00
  C 103.69 62.07 136.97 63.16 143.81 86.38
  Q 145.16 90.96 145.07 101.73
  Q 144.96 114.61 145.08 127.47
  Q 145.08 128.01 145.62 128.00
  C 150.30 127.97 155.50 127.53 159.66 129.17
  C 170.02 133.24 170.77 141.22 170.71 152.08
  Q 170.55 187.05 170.75 222.01
  Q 170.76 222.67 171.17 222.15
  Q 257.16 112.77 343.08 3.35
  Q 345.01 0.90 348.82 0.00
  Z
  M 494.07 44.08
  C 490.83 28.31 477.20 17.17 460.24 17.10
  Q 409.66 16.89 359.00 17.11
  Q 358.41 17.12 358.41 17.71
  L 358.41 366.56
  A 0.40 0.40 0.0 0 0 358.81 366.96
  L 494.47 366.96
  Q 494.94 366.96 494.94 366.48
  Q 494.98 215.20 494.96 64.02
  Q 494.95 48.37 494.07 44.08
  Z
  M 322.80 184.76
  C 317.28 191.90 305.85 187.99 307.29 178.94
  Q 307.69 176.42 310.34 173.04
  Q 325.64 153.52 341.05 133.97
  Q 341.32 133.63 341.32 133.20
  L 341.31 33.71
  A 0.17 0.17 0.0 0 0 341.01 33.61
  L 171.03 249.96
  Q 170.69 250.39 170.69 250.95
  L 170.69 349.99
  Q 170.69 350.69 171.13 350.14
  Q 184.53 333.39 197.65 316.42
  C 203.32 309.09 215.22 314.09 213.00 323.09
  Q 212.45 325.32 208.78 329.97
  Q 189.85 353.94 171.02 378.02
  Q 170.69 378.44 170.69 378.98
  L 170.69 478.01
  Q 170.69 478.78 171.16 478.17
  L 340.98 262.05
  Q 341.33 261.61 341.33 261.05
  L 341.31 162.01
  Q 341.31 161.36 340.91 161.86
  Q 331.67 173.28 322.80 184.76
  Z
  M 43.20 128.01
  L 59.24 128.01
  A 0.54 0.54 0.0 0 0 59.78 127.47
  L 59.78 94.09
  A 8.72 8.54 90.0 0 0 51.24 85.37
  L 51.20 85.37
  A 8.72 8.54 -90.0 0 0 42.66 94.09
  L 42.66 127.47
  A 0.54 0.54 0.0 0 0 43.20 128.01
  Z
  M 111.58 128.00
  L 127.36 128.00
  A 0.65 0.65 0.0 0 0 128.01 127.35
  L 128.01 94.00
  A 8.64 8.54 90.0 0 0 119.47 85.36
  L 119.47 85.36
  A 8.64 8.54 90.0 0 0 110.93 94.00
  L 110.93 127.35
  A 0.65 0.65 0.0 0 0 111.58 128.00
  Z
  M 18.60 470.60
  C 22.70 484.81 35.90 494.85 51.25 494.88
  Q 102.22 494.97 153.07 494.97
  A 0.52 0.52 0.0 0 0 153.59 494.45
  L 153.59 145.40
  A 0.36 0.36 0.0 0 0 153.23 145.04
  L 17.53 145.05
  Q 17.05 145.05 17.05 145.52
  Q 17.03 298.17 17.04 450.74
  Q 17.04 465.21 18.60 470.60
  Z
  M 400.53 384.00
  L 384.51 384.00
  A 0.53 0.53 0.0 0 0 383.98 384.53
  L 383.98 417.93
  A 8.71 8.54 -90.0 0 0 392.52 426.64
  L 392.52 426.64
  A 8.71 8.54 90.0 0 0 401.06 417.93
  L 401.06 384.53
  A 0.53 0.53 0.0 0 0 400.53 384.00
  Z
  M 469.02 384.00
  L 452.56 384.00
  A 0.32 0.32 0.0 0 0 452.24 384.32
  L 452.24 417.92
  A 8.72 8.55 90.0 0 0 460.79 426.64
  L 460.79 426.64
  A 8.72 8.55 90.0 0 0 469.34 417.92
  L 469.34 384.32
  A 0.32 0.32 0.0 0 0 469.02 384.00
  Z"
/>
<path fill="#000000" d="
  M 435.83 51.19
  Q 445.97 51.28 456.11 51.22
  Q 463.81 51.17 467.24 52.52
  C 475.02 55.58 477.82 62.19 477.83 70.44
  Q 477.85 99.60 477.88 128.76
  Q 477.89 139.75 476.29 143.54
  C 473.22 150.84 466.73 153.50 458.83 153.55
  Q 447.33 153.62 435.81 153.57
  Q 435.29 153.56 435.28 154.08
  Q 435.11 161.72 435.20 169.23
  C 435.36 182.35 418.18 182.76 418.17 169.13
  Q 418.16 161.62 418.13 154.14
  Q 418.12 153.59 417.58 153.59
  Q 406.38 153.57 395.25 153.56
  C 386.76 153.56 380.19 151.15 376.89 143.22
  Q 375.49 139.87 375.48 133.09
  Q 375.43 102.05 375.49 71.03
  C 375.51 62.43 378.00 55.65 386.16 52.50
  Q 389.62 51.16 397.48 51.21
  Q 407.56 51.29 417.64 51.19
  Q 418.17 51.18 418.16 50.65
  Q 418.10 43.28 418.18 36.03
  Q 418.24 31.43 419.66 29.32
  C 424.66 21.90 435.44 26.27 435.26 35.00
  Q 435.09 42.81 435.27 50.64
  Q 435.28 51.19 435.83 51.19
  Z
  M 460.78 68.64
  A 0.38 0.38 0.0 0 0 460.40 68.26
  L 392.90 68.26
  A 0.38 0.38 0.0 0 0 392.52 68.64
  L 392.52 136.14
  A 0.38 0.38 0.0 0 0 392.90 136.52
  L 460.40 136.52
  A 0.38 0.38 0.0 0 0 460.78 136.14
  L 460.78 68.64
  Z"
/>
<path fill="#000000" d="
  M 452.24 102.40
  A 25.58 25.58 0.0 0 1 426.66 127.98
  A 25.58 25.58 0.0 0 1 401.08 102.40
  A 25.58 25.58 0.0 0 1 426.66 76.82
  A 25.58 25.58 0.0 0 1 452.24 102.40
  Z
  M 435.17 102.40
  A 8.50 8.50 0.0 0 0 426.67 93.90
  A 8.50 8.50 0.0 0 0 418.17 102.40
  A 8.50 8.50 0.0 0 0 426.67 110.90
  A 8.50 8.50 0.0 0 0 435.17 102.40
  Z"
/>
<path fill="#000000" d="
  M 93.84 290.78
  Q 93.88 297.72 93.83 304.64
  Q 93.80 309.77 92.39 312.08
  C 89.41 316.97 80.78 316.80 78.02 311.68
  Q 76.84 309.50 76.80 304.64
  Q 76.74 297.58 76.80 290.58
  A 0.43 0.42 -90.0 0 0 76.38 290.15
  Q 67.10 290.11 57.83 290.16
  Q 48.47 290.21 44.72 288.77
  Q 37.98 286.17 35.45 279.36
  Q 34.10 275.72 34.11 266.99
  Q 34.17 237.20 34.15 207.43
  C 34.15 198.97 36.73 192.21 44.73 189.07
  Q 48.25 187.69 56.44 187.74
  Q 66.33 187.79 76.21 187.72
  Q 76.75 187.72 76.76 187.18
  Q 76.84 180.59 76.79 174.08
  Q 76.74 169.18 77.68 167.06
  C 81.51 158.34 93.72 161.75 93.81 171.53
  Q 93.89 179.35 93.85 187.17
  Q 93.84 187.70 94.37 187.71
  Q 103.21 187.81 112.00 187.75
  Q 122.23 187.67 125.83 189.03
  C 133.75 192.03 136.49 198.84 136.50 207.18
  Q 136.55 238.75 136.51 270.31
  C 136.50 278.93 133.83 285.98 125.52 288.96
  Q 122.08 290.20 111.84 290.11
  Q 103.14 290.04 94.43 290.19
  Q 93.84 290.20 93.84 290.78
  Z
  M 119.48 205.09
  A 0.31 0.31 0.0 0 0 119.17 204.78
  L 51.53 204.78
  A 0.31 0.31 0.0 0 0 51.22 205.09
  L 51.22 272.73
  A 0.31 0.31 0.0 0 0 51.53 273.04
  L 119.17 273.04
  A 0.31 0.31 0.0 0 0 119.48 272.73
  L 119.48 205.09
  Z"
/>
<path fill="#000000" d="
  M 435.25 324.84
  Q 435.17 331.00 435.20 337.15
  Q 435.23 343.11 434.23 345.21
  C 430.20 353.57 418.26 350.17 418.24 340.50
  Q 418.22 332.67 418.10 324.84
  Q 418.09 324.30 417.55 324.29
  Q 409.39 324.19 401.27 324.25
  Q 389.88 324.32 386.38 323.05
  C 378.44 320.17 375.51 313.29 375.49 304.99
  Q 375.44 273.69 375.48 242.41
  Q 375.49 235.64 376.88 232.28
  C 380.26 224.10 386.97 221.88 395.69 221.88
  Q 406.63 221.88 417.56 221.85
  Q 418.11 221.85 418.12 221.29
  Q 418.20 214.32 418.15 207.45
  Q 418.12 202.93 419.23 200.76
  C 423.29 192.81 435.28 196.20 435.23 204.99
  Q 435.18 213.16 435.23 221.31
  A 0.54 0.53 89.4 0 0 435.76 221.84
  Q 446.18 221.90 456.56 221.86
  Q 463.84 221.84 467.27 223.21
  C 475.42 226.47 477.84 233.20 477.84 241.85
  Q 477.84 273.93 477.89 306.00
  Q 477.91 318.80 467.10 323.00
  Q 463.87 324.25 458.16 324.24
  Q 446.99 324.22 435.81 324.27
  Q 435.25 324.28 435.25 324.84
  Z
  M 460.78 239.27
  A 0.31 0.31 0.0 0 0 460.47 238.96
  L 392.83 238.96
  A 0.31 0.31 0.0 0 0 392.52 239.27
  L 392.52 306.91
  A 0.31 0.31 0.0 0 0 392.83 307.22
  L 460.47 307.22
  A 0.31 0.31 0.0 0 0 460.78 306.91
  L 460.78 239.27
  Z"
/>
<path fill="#000000" d="
  M 110.91 238.93
  A 25.58 25.58 0.0 0 1 85.33 264.51
  A 25.58 25.58 0.0 0 1 59.75 238.93
  A 25.58 25.58 0.0 0 1 85.33 213.35
  A 25.58 25.58 0.0 0 1 110.91 238.93
  Z
  M 93.83 238.93
  A 8.50 8.50 0.0 0 0 85.33 230.43
  A 8.50 8.50 0.0 0 0 76.83 238.93
  A 8.50 8.50 0.0 0 0 85.33 247.43
  A 8.50 8.50 0.0 0 0 93.83 238.93
  Z"
/>
<rect fill="#000000" x="-8.53" y="-43.15" transform="translate(260.35,250.49) rotate(38.1)" width="17.06" height="86.30" rx="8.40"/>
<path fill="#000000" d="
  M 452.24 273.06
  A 25.58 25.58 0.0 0 1 426.66 298.64
  A 25.58 25.58 0.0 0 1 401.08 273.06
  A 25.58 25.58 0.0 0 1 426.66 247.48
  A 25.58 25.58 0.0 0 1 452.24 273.06
  Z
  M 435.16 273.06
  A 8.50 8.50 0.0 0 0 426.66 264.56
  A 8.50 8.50 0.0 0 0 418.16 273.06
  A 8.50 8.50 0.0 0 0 426.66 281.56
  A 8.50 8.50 0.0 0 0 435.16 273.06
  Z"
/>
<path fill="#000000" d="
  M 76.18 460.79
  Q 65.14 460.76 54.09 460.76
  Q 47.81 460.76 44.58 459.42
  C 36.82 456.19 34.19 449.76 34.17 441.43
  Q 34.10 409.63 34.17 377.85
  C 34.19 369.51 36.73 363.12 44.46 359.83
  Q 47.66 358.46 53.75 358.44
  Q 64.98 358.40 76.21 358.43
  Q 76.74 358.43 76.75 357.90
  Q 76.85 351.58 76.79 345.33
  Q 76.73 340.52 77.28 338.74
  C 80.22 329.14 93.91 331.76 93.89 342.24
  Q 93.86 353.93 93.84 357.83
  Q 93.84 358.39 94.40 358.39
  Q 104.46 358.47 114.46 358.41
  Q 122.37 358.36 125.87 359.72
  C 133.90 362.85 136.49 369.55 136.50 378.03
  Q 136.53 408.18 136.53 438.30
  Q 136.54 446.87 135.05 450.51
  C 131.73 458.61 124.88 460.77 116.24 460.78
  Q 105.26 460.78 94.33 460.78
  Q 93.82 460.78 93.82 461.29
  Q 93.94 468.86 93.81 476.45
  Q 93.74 480.50 92.36 482.60
  C 87.96 489.32 76.70 486.21 76.78 478.26
  Q 76.87 469.80 76.75 461.35
  Q 76.74 460.79 76.18 460.79
  Z
  M 119.48 375.89
  A 0.41 0.41 0.0 0 0 119.07 375.48
  L 51.63 375.48
  A 0.41 0.41 0.0 0 0 51.22 375.89
  L 51.22 443.33
  A 0.41 0.41 0.0 0 0 51.63 443.74
  L 119.07 443.74
  A 0.41 0.41 0.0 0 0 119.48 443.33
  L 119.48 375.89
  Z"
/>
<path fill="#000000" d="
  M 110.91 409.59
  A 25.58 25.58 0.0 0 1 85.33 435.17
  A 25.58 25.58 0.0 0 1 59.75 409.59
  A 25.58 25.58 0.0 0 1 85.33 384.01
  A 25.58 25.58 0.0 0 1 110.91 409.59
  Z
  M 93.83 409.59
  A 8.50 8.50 0.0 0 0 85.33 401.09
  A 8.50 8.50 0.0 0 0 76.83 409.59
  A 8.50 8.50 0.0 0 0 85.33 418.09
  A 8.50 8.50 0.0 0 0 93.83 409.59
  Z"
/>
</svg>
